<!-- Generated by IcoMoon.io -->
<svg version="1.1" xmlns="http://www.w3.org/2000/svg" width="2089" height="512" viewBox="0 0 2089 512">
<title>logo2</title>
<g id="icomoon-ignore">
</g>
<path d="M359.503 381.825c0 28.37 45.756 32.026 45.756 2.541 0-36.441-45.756-30.092-45.756-2.541zM202.209 13.277c-37.001 1.571-72.054 5.575-99.961 12.167-14.337 3.384-33.369 7.972-43.13 15.308-8.458 6.334-22.416 22.529-22.416 36.053v50.83c-28.765 0-36.403 13.184-38.124 30.577v32.967c0 21.042 19.669 27.952 38.124 27.952v198.255c0 12.060 8.011 22.817 17.795 25.426 0 38.511 15.976 53.159 33.216 55.92h13.085c10.665-1.57 20.337-6.644 25.365-12.243 7.236-8.034 8.7-14.648 9.587-28.719 1.040-16.681 2.040-10.157 22.856-9.824 43.465 0.638 162.58 3.367 188.21-2.587 0 35.188 15.337 50.344 32.481 53.379h13.676c11.637-1.92 22.438-8.457 28.218-17.151 7.457-11.241 6.971-20.981 6.971-38.769 10.248-2.745 20.337-15.209 20.337-27.969v-195.713c43.329 0 35.584-28.453 35.584-66.078 0-17.84-17.219-25.426-35.584-25.426 0-56.299 5.757-85.397-61.609-101.069-30.577-7.101-69.839-11.591-110.839-13.305h-73.822zM77.379 381.825c0-27.558 45.756-33.9 45.756 2.541 0 28.104-45.756 26.981-45.756-2.541zM77.379 292.856v-152.491c0-7.813 7.457-10.179 15.247-10.179h302.481c5.932 0 10.157 4.225 10.157 10.179v155.032c0 5.864-1.775 7.632-7.632 7.632h-310.074c-5.948 0-10.18-4.225-10.18-10.18zM146 81.903c0-19.98-2.745-27.968 7.631-27.968h175.376c10.384 0 7.632 7.988 7.632 27.968 0 5.864-1.775 7.616-7.632 7.616h-175.376c-5.864 0-7.631-1.745-7.631-7.616z"></path>
<path d="M949.189 427.581h254.177v-63.551h-190.64v-73.709h183.007v-60.988h-183.007v-76.257h190.64v-63.552h-254.177z"></path>
<path d="M1231.311 427.581h254.177v-63.551h-190.617v-73.709h183.007v-60.988h-183.007v-76.257h190.617v-63.552h-254.177z"></path>
<path d="M735.689 165.768h5.067c2.231 9.566 9.892 23.901 14.162 34.15l44.306 103.118h-121.997c5.151-10.778 9.513-21.998 14.541-33.748 8.413-19.669 40.606-89.273 43.927-103.519zM550.139 427.581h71.167l27.952-63.551h177.941l27.952 63.551h71.167l-18.873-42.137c-21.376-51.543-55.207-118.341-76.629-169.907l-47.887-107.152c-10.157-25.245-5.491-18.873-75.195-18.873-8.587 0-15.179 22.681-22.15 38.86-6.259 14.587-13.123 27.421-19.251 41.751-22.105 51.695-98.186 223.432-116.172 257.451z"></path>
<path d="M1510.908 170.865c0 108.123 101.084 98.322 165.795 113.812 12.039 2.882 23.568 7.305 31.799 13.919 4.559 3.649 8.298 7.32 10.794 12.077 29.014 55.435-66.941 89.273-133.018 54.243-13.761-7.305-31.009-23.121-34.719-39.012-11.947 0.994-13.123 5.371-27.922 12.743-8.428 4.18-18.296 10.423-27.968 12.683 5.711 24.584 31.494 52.356 50.891 63.468 86.793 49.746 241.379 17.349 241.379-76.173 0-39.673-4.225-71.659-43.995-93.255-71.569-38.876-164.642-15.822-168.908-64.817-1.372-15.822 10.491-30.076 20.732-36.668 23.606-15.247 67.033-12.744 95.334-0.713 14.997 6.379 26.245 14.337 33.307 27.686l53.379-25.381c-4.74-17.727-30.652-41.606-46.544-50.079-73.071-38.951-220.338-18.371-220.338 75.46z"></path>
<path d="M1958.238 269.978h-86.414v-119.449c43.441 0 109.005-6.994 135.205 14.761 31.025 25.76 30.782 104.695-48.797 104.695zM1805.725 427.581h66.1v-99.135h104.208c65.675 0 114.389-51.232 114.389-124.54 0-61.988-52.4-114.389-114.389-114.389h-170.303v338.065z"></path>
</svg>
